<?xml version="1.0" encoding="UTF-8"?>
<svg xmlns="http://www.w3.org/2000/svg" id="chart-time" width="540" height="280" style="background: rgb(22, 22, 28); border-radius: 6px;"><text x="12" y="124" fill="#888" font-family="monospace" font-size="10" transform="rotate(-90 12 124)" text-anchor="middle">ms</text><g><line x1="56" y1="234" x2="524" y2="234" stroke="#333" stroke-width="1"/><text x="50" y="237" fill="#888" font-family="monospace" font-size="10" text-anchor="end">0</text></g><g><line x1="56" y1="179" x2="524" y2="179" stroke="#333" stroke-width="1"/><text x="50" y="182" fill="#888" font-family="monospace" font-size="10" text-anchor="end">5244</text></g><g><line x1="56" y1="124" x2="524" y2="124" stroke="#333" stroke-width="1"/><text x="50" y="127" fill="#888" font-family="monospace" font-size="10" text-anchor="end">10487</text></g><g><line x1="56" y1="69" x2="524" y2="69" stroke="#333" stroke-width="1"/><text x="50" y="72" fill="#888" font-family="monospace" font-size="10" text-anchor="end">15731</text></g><g><line x1="56" y1="14" x2="524" y2="14" stroke="#333" stroke-width="1"/><text x="50" y="17" fill="#888" font-family="monospace" font-size="10" text-anchor="end">20975</text></g><g><rect x="84.5" y="230.3302152475473" width="60" height="3.669784752452699" fill="#f59e0baa" stroke="#f59e0b" stroke-width="1.5"/><text x="114.5" y="226.3302152475473" fill="#ccc" font-family="monospace" font-size="10" text-anchor="middle">350</text><text x="114.5" y="250" fill="#ccc" font-family="monospace" font-size="11" text-anchor="middle">SA</text></g><g><rect x="201.5" y="34.00000000000001" width="60" height="200" fill="#10b981aa" stroke="#10b981" stroke-width="1.5"/><text x="231.5" y="30.000000000000007" fill="#ccc" font-family="monospace" font-size="10" text-anchor="middle">19068</text><text x="231.5" y="250" fill="#ccc" font-family="monospace" font-size="11" text-anchor="middle">GA</text></g><g><rect x="318.5" y="233.95594705952237" width="60" height="0.04405294047762709" fill="#3b82f6aa" stroke="#3b82f6" stroke-width="1.5"/><text x="348.5" y="229.95594705952237" fill="#ccc" font-family="monospace" font-size="10" text-anchor="middle">4</text><text x="348.5" y="250" fill="#ccc" font-family="monospace" font-size="11" text-anchor="middle">Greedy-X</text></g><g><rect x="435.5" y="233.6475764763353" width="60" height="0.3524235236646973" fill="#ef4444aa" stroke="#ef4444" stroke-width="1.5"/><text x="465.5" y="229.6475764763353" fill="#ccc" font-family="monospace" font-size="10" text-anchor="middle">34</text><text x="465.5" y="250" fill="#ccc" font-family="monospace" font-size="11" text-anchor="middle">Greedy-NN</text></g></svg>